<svg id="Capa_1" enable-background="new 0 0 504.449 504.449" height="512" viewBox="0 0 504.449 504.449" width="512" xmlns="http://www.w3.org/2000/svg"><g><path d="m304.568 123.029-245.12-60.371-31.57 31.57 190.922 127.744z" fill="#4e5a61"/><path d="m380.807 203.584 54.786 243.493-27.062 26.786-126.159-187.328z" fill="#0a1f33"/><path d="m203.5 476.375-27.58 27.58-58.58-95.91-4.07-16.19-.29-.08 45.27-45.26 22.17 22.17z" fill="#0a1f33"/><path d="m158.25 346.515-45.27 45.26-16.08-4.17-96.9-59.56 27.57-27.57 107.73 23.09z" fill="#4e5a61"/><path d="m498.77 5.985-149.466 168.368-242.274 223.382-10.13-10.13 2.24-3.92c25.33-44.32 41.13-70.07 71.88-110.77l70.57-88.12c16.25-18.38 33.06-36.26 50.41-53.62l17.63-17.63 47.92-25.26 15.23-26.01c3.13-1.94 6.31-3.83 9.52-5.66l93.83-53.62c7.35-4.5 16.76-2.58 22.64 2.99z" fill="#e9f3fb"/><path d="m501.95 28.815-53.62 93.83c-1.83 3.2-3.71 6.37-5.64 9.49l-26.93 13.66-24.36 49.52-15.35 15.34c-12.73 12.74-25.75 25.18-39.04 37.32-4.43 4.05-8.89 8.06-13.38 12.04l-90.39 73.01c-36.36 26.63-74.21 51.2-113.37 73.57l-2.53 1.45-10.31-10.31 190.805-190.81 200.935-200.94c2.99 2.82 5.07 6.59 5.51 10.93.54 4.01-.21 8.19-2.33 11.9z" fill="#d6e9f8"/><path d="m198.053 171.503-46.477 56.052c-7.402 8.927-5.737 23.176 3.824 32.737 9.561 9.561 23.81 11.226 32.737 3.824l56.052-46.477c8.749-7.255 8.217-21.481-1.154-30.853l-14.129-14.129c-9.372-9.371-23.598-9.903-30.853-1.154z" fill="#b3d9ff"/><path d="m332.299 305.749-56.052 46.477c-8.927 7.402-23.176 5.737-32.737-3.824-9.561-9.561-11.226-23.81-3.824-32.737l46.477-56.052c7.255-8.749 21.481-8.217 30.853 1.154l14.129 14.129c9.371 9.372 9.903 23.599 1.154 30.853z" fill="#9af"/><path d="m423.12 81.635-20.642 32.819-28.328 16.151c-15.61-15.54-38.78-23.49-63.1-17.41l-1.42.35 6.08-6.07c9.92-9.92 20.47-19.16 31.6-27.65 8.19-6.26 16.69-12.11 25.47-17.54 19.52-1.09 37.49 6.56 50.34 19.35z" fill="#b3d9ff"/><path d="m442.67 132.125c-.83 1.34-1.65 2.69-2.5 4.01-12.26 19.17-26.6 37.01-42.7 53.1l-6.07 6.08.35-1.42c6.1-24.42-1.93-47.69-17.6-63.29l48.97-48.97c12.9 12.85 20.63 30.89 19.55 50.49z" fill="#9af"/></g></svg>