<?xml version="1.0" encoding="iso-8859-1"?>
<!-- Generator: Adobe Illustrator 19.0.0, SVG Export Plug-In . SVG Version: 6.00 Build 0)  -->
<svg version="1.1" id="Capa_1" xmlns="http://www.w3.org/2000/svg" xmlns:xlink="http://www.w3.org/1999/xlink" x="0px" y="0px"
	 viewBox="0 0 468.293 468.293" style="enable-background:new 0 0 468.293 468.293;" xml:space="preserve">
<g>
	<path style="fill:#64798A;" d="M11.863,467.356L0.624,456.117l11.239-11.239l11.239,11.239L11.863,467.356z M40.585,438.634
		l-11.239-11.239l16.859-16.859l11.239,11.239L40.585,438.634z M74.927,404.917l-11.239-11.239l16.859-16.859l11.239,11.239
		L74.927,404.917z M108.644,370.576l-11.239-11.239l16.859-16.859l11.239,11.239L108.644,370.576z M142.985,336.234l-11.239-11.239
		l16.859-16.859l11.239,11.239L142.985,336.234z M177.327,301.893l-11.239-11.239l16.859-16.859l11.239,11.239L177.327,301.893z
		 M211.668,267.551l-11.239-11.239l16.859-16.859l11.239,11.239L211.668,267.551z M246.01,233.834l-11.863-11.863l16.859-16.859
		l11.239,11.239L246.01,233.834z M280.351,199.493l-11.239-11.239l16.859-16.859l11.239,11.239L280.351,199.493z M314.068,165.151
		l-11.239-11.239l16.859-16.859l11.239,11.239L314.068,165.151z M348.41,130.81l-11.239-11.239l16.859-16.859l11.239,11.239
		L348.41,130.81z M382.751,96.468l-11.239-11.239l16.859-16.859L399.61,79.61L382.751,96.468z M417.093,62.127l-11.239-11.239
		l16.859-16.859l11.239,11.239L417.093,62.127z M451.434,28.41l-11.239-11.239l16.859-16.859l11.239,11.239L451.434,28.41z"/>
	<path style="fill:#64798A;" d="M379.629,363.083l-23.727-23.727l29.346-29.346c4.995-4.995,13.112-4.995,18.107,0l5.619,4.995
		c4.995,4.995,4.995,13.112,0,18.107L379.629,363.083z"/>
	<path style="fill:#64798A;" d="M364.644,301.893l-23.727-23.727l29.346-29.346c4.995-4.995,13.112-4.995,18.107,0l4.995,4.995
		c4.995,4.995,4.995,13.112,0,18.107L364.644,301.893z"/>
	<path style="fill:#64798A;" d="M104.898,88.351l23.727,23.727l29.346-29.346c4.995-4.995,4.995-13.112,0-18.107l-4.995-5.62
		c-4.995-4.995-13.112-4.995-18.107,0L104.898,88.351z"/>
	<path style="fill:#64798A;" d="M166.088,103.337l23.727,23.727l29.346-29.346c4.995-4.995,4.995-13.112,0-18.107l-4.995-4.995
		c-4.995-4.995-13.112-4.995-18.107,0L166.088,103.337z"/>
</g>
<polygon style="fill:#F6C358;" points="172.332,455.493 159.844,467.98 0,308.137 12.488,295.649 126.127,341.854 "/>
<g>
	<polygon style="fill:#FCD462;" points="369.639,448.624 264.741,263.805 347.161,181.385 395.239,423.649 	"/>
	<polygon style="fill:#FCD462;" points="19.356,98.341 204.176,203.239 286.595,120.82 44.332,72.741 	"/>
</g>
<g>
	<polygon style="fill:#DC8744;" points="38.712,78.985 269.112,138.302 286.595,120.82 44.332,72.741 	"/>
	<polygon style="fill:#DC8744;" points="388.995,429.268 329.678,198.868 347.161,181.385 395.239,423.649 	"/>
</g>
<path style="fill:#E1E6E9;" d="M414.595,81.483c-4.995,38.088-22.478,74.302-49.327,101.151L101.776,403.668
	c-10.615,8.741-26.224,8.117-35.59-1.873c-9.99-9.366-10.615-24.976-1.873-35.59l221.034-263.493
	c27.473-27.473,63.063-44.956,101.151-49.327c8.117-1.249,15.61,1.873,20.605,6.868C412.722,65.873,415.844,73.366,414.595,81.483z"
	/>
<path style="fill:#64798A;" d="M366.517,148.293c-1.249-1.249-1.873-3.122-1.873-4.995c0-21.854-18.107-39.961-39.961-39.961
	c-3.746,0-6.868-3.122-6.868-6.868c0-3.746,3.122-6.868,6.868-6.868c29.971,0,54.322,24.351,54.322,54.322
	c0,3.746-3.122,6.868-6.868,6.868C369.639,150.79,367.766,149.541,366.517,148.293z"/>
<g>
</g>
<g>
</g>
<g>
</g>
<g>
</g>
<g>
</g>
<g>
</g>
<g>
</g>
<g>
</g>
<g>
</g>
<g>
</g>
<g>
</g>
<g>
</g>
<g>
</g>
<g>
</g>
<g>
</g>
</svg>
